# xmcd CD database file
#
# Track frame offsets:
#	150
#	41945
#	123615
#	143105
#	153082
#	163515
#	177617
#
# Disc length: 2614 seconds
#
# Revision: 0
# Processed by: cddbd v1.5.1PL2 Copyright (c) Steve Scherf et al.
# Submitted via: CDex 1.51
#
DISCID=5f0a3407
DTITLE=BIG BRASS - BIG BRASS
DYEAR=1900
DGENRE=Instrumental
TTITLE0=王宮の花火の音楽（ヘンデル／織田英子）
TTITLE1=ジョン・ウィリアムズ・メドレー（J.ウィリアムズ／東海林修）
TTITLE2=グラナダ（ララ／新井英治）
TTITLE3=「ペリ」よりファンファーレ（デュカス／新井英治）
TTITLE4=亜麻色の髪の乙女（ドビュッシー／津堅直弘）
TTITLE5=ウィリアム・テル序曲（ロッシーニ／津堅直弘）
TTITLE6=グリーンスリーブス（スコットランド民謡／新井英治）
EXTD=
EXTT0=
EXTT1=
EXTT2=
EXTT3=
EXTT4=
EXTT5=
EXTT6=
PLAYORDER=
